# xmcd CD database file
# Copyright (C) 1993-1996 Ti Kan
#
# Track frame offsets:
#  150
#  15672
#  31125
#  46652
#  67652
#  80942
#  93367
#  109682
#  125505
#  139127
#  154972
#  168127
#  183575
#  199640
#  217935
#  232685
#  247910
#
# Disc length: 3530 seconds
#
# Revision: 1
# Processed by: cddbd v1.5.2PL0 Copyright (c) Steve Scherf et al.
# Submitted via: Advanced CD Ripper Pro 2.0
#
DISCID=d00dc811
DTITLE=Avioes do Forro 5 - Volume 5
DYEAR=2007
DGENRE=Forro
TTITLE0=Tome, Tome
TTITLE1=Indecisao
TTITLE2=Bateu Levou
TTITLE3=Amor Covarde
TTITLE4=Voce Nao Merece
TTITLE5=Agora Com Voce
TTITLE6=Nos Dois
TTITLE7=Tao Frio
TTITLE8=Vai Dar Amor
TTITLE9=Comendo Agua
TTITLE10=Amores, Aventuras e Paixoes
TTITLE11=Cego, Surdo e Mudo
TTITLE12=Cha de Costa
TTITLE13=Sol e Mar
TTITLE14=E Amor
TTITLE15=Cuidado Coracao
TTITLE16=Vem Junto Com Avioao
EXTD=
EXTT0=
EXTT1=
EXTT2=
EXTT3=
EXTT4=
EXTT5=
EXTT6=
EXTT7=
EXTT8=
EXTT9=
EXTT10=
EXTT11=
EXTT12=
EXTT13=
EXTT14=
EXTT15=
EXTT16=
PLAYORDER=
